<svg width="120" height="42" viewBox="0 0 120 42" fill="none" xmlns="http://www.w3.org/2000/svg">
<path d="M54.9191 8.382H62.3221V9.306C62.3221 10.3473 62.1461 11.319 61.7941 12.221C61.4495 13.123 60.9545 13.915 60.3091 14.597C59.6638 15.279 58.8938 15.8107 57.9991 16.192C57.1045 16.5733 56.1145 16.764 55.0291 16.764C53.9071 16.764 52.8878 16.5733 51.9711 16.192C51.0618 15.8033 50.2771 15.2643 49.6171 14.575C48.9571 13.8857 48.4511 13.0863 48.0991 12.177C47.7471 11.2603 47.5711 10.2777 47.5711 9.229C47.5711 8.18767 47.7471 7.21233 48.0991 6.303C48.4511 5.38633 48.9571 4.587 49.6171 3.905C50.2771 3.21567 51.0618 2.68033 51.9711 2.299C52.8878 1.91033 53.9071 1.716 55.0291 1.716C55.9458 1.716 56.7525 1.815 57.4491 2.013C58.1531 2.211 58.7581 2.475 59.2641 2.805C59.7701 3.135 60.1991 3.498 60.5511 3.894C60.9031 4.28267 61.1965 4.664 61.4311 5.038L58.3071 6.512C58.0065 6.05 57.5958 5.64667 57.0751 5.302C56.5618 4.95733 55.8798 4.785 55.0291 4.785C54.4351 4.785 53.8888 4.90233 53.3901 5.137C52.8988 5.37167 52.4735 5.69433 52.1141 6.105C51.7548 6.50833 51.4761 6.98133 51.2781 7.524C51.0875 8.05933 50.9921 8.62767 50.9921 9.229C50.9921 9.83767 51.0875 10.4097 51.2781 10.945C51.4761 11.4803 51.7548 11.9533 52.1141 12.364C52.4735 12.7747 52.8988 13.0973 53.3901 13.332C53.8888 13.5593 54.4351 13.673 55.0291 13.673C55.5498 13.673 56.0228 13.607 56.4481 13.475C56.8735 13.343 57.2401 13.1523 57.5481 12.903C57.8635 12.6537 58.1091 12.3603 58.2851 12.023C58.4685 11.6783 58.5785 11.3007 58.6151 10.89H54.9191V8.382ZM67.2799 16.5H63.9359V7.469H67.2799V8.866H67.2249C67.2835 8.69733 67.4265 8.48467 67.6539 8.228C67.8812 7.964 68.2002 7.72933 68.6109 7.524C69.0215 7.31133 69.5239 7.205 70.1179 7.205C70.5359 7.205 70.9209 7.271 71.2729 7.403C71.6249 7.52767 71.8815 7.64867 72.0429 7.766L70.7449 10.483C70.6422 10.3583 70.4589 10.23 70.1949 10.098C69.9382 9.95867 69.6155 9.889 69.2269 9.889C68.7795 9.889 68.4092 10.0027 68.1159 10.23C67.8299 10.4573 67.6172 10.7323 67.4779 11.055C67.3459 11.3777 67.2799 11.682 67.2799 11.968V16.5ZM77.3062 16.764C76.3162 16.764 75.4362 16.5623 74.6662 16.159C73.9035 15.7483 73.3022 15.1873 72.8622 14.476C72.4295 13.7573 72.2132 12.936 72.2132 12.012C72.2132 11.088 72.4295 10.2667 72.8622 9.548C73.3022 8.822 73.9035 8.25 74.6662 7.832C75.4362 7.414 76.3162 7.205 77.3062 7.205C78.2962 7.205 79.1688 7.414 79.9242 7.832C80.6795 8.25 81.2698 8.822 81.6952 9.548C82.1205 10.2667 82.3332 11.088 82.3332 12.012C82.3332 12.936 82.1205 13.7573 81.6952 14.476C81.2698 15.1873 80.6795 15.7483 79.9242 16.159C79.1688 16.5623 78.2962 16.764 77.3062 16.764ZM77.3062 14.014C77.6875 14.014 78.0175 13.9297 78.2962 13.761C78.5748 13.5923 78.7912 13.354 78.9452 13.046C79.0992 12.738 79.1762 12.3897 79.1762 12.001C79.1762 11.605 79.0992 11.253 78.9452 10.945C78.7912 10.637 78.5748 10.395 78.2962 10.219C78.0175 10.043 77.6875 9.955 77.3062 9.955C76.9248 9.955 76.5912 10.043 76.3052 10.219C76.0265 10.395 75.8065 10.637 75.6452 10.945C75.4912 11.253 75.4142 11.605 75.4142 12.001C75.4142 12.3897 75.4912 12.738 75.6452 13.046C75.8065 13.354 76.0265 13.5923 76.3052 13.761C76.5912 13.9297 76.9248 14.014 77.3062 14.014ZM91.0254 11.264L88.9244 16.5H85.8554L82.8634 7.469H86.4164L87.8574 12.925L89.9364 7.645H92.1364L94.1824 12.925L95.6344 7.469H99.1874L96.2064 16.5H93.1484L91.0254 11.264ZM99.3737 7.469H100.914V3.762H104.225V7.469H106.249V10.219H104.225V12.738C104.225 13.112 104.28 13.4163 104.39 13.651C104.5 13.8783 104.701 13.992 104.995 13.992C105.193 13.992 105.361 13.948 105.501 13.86C105.64 13.772 105.724 13.7133 105.754 13.684L106.898 16.06C106.846 16.104 106.685 16.1847 106.414 16.302C106.15 16.4193 105.812 16.5257 105.402 16.621C104.991 16.7163 104.533 16.764 104.027 16.764C103.125 16.764 102.38 16.511 101.794 16.005C101.207 15.4917 100.914 14.7033 100.914 13.64V10.219H99.3737V7.469ZM114.428 7.205C115.059 7.205 115.675 7.33333 116.276 7.59C116.877 7.84667 117.372 8.25367 117.761 8.811C118.15 9.361 118.344 10.087 118.344 10.989V16.5H115V11.539C115 10.8937 114.853 10.4097 114.56 10.087C114.274 9.757 113.882 9.592 113.383 9.592C113.053 9.592 112.738 9.68 112.437 9.856C112.136 10.0247 111.891 10.2667 111.7 10.582C111.517 10.89 111.425 11.2457 111.425 11.649V16.5H108.07V1.364H111.425V8.8C111.506 8.558 111.685 8.316 111.964 8.074C112.25 7.82467 112.606 7.61933 113.031 7.458C113.464 7.28933 113.929 7.205 114.428 7.205ZM55.1181 21.716C56.0201 21.716 56.8084 21.815 57.4831 22.013C58.1577 22.211 58.7004 22.42 59.1111 22.64C59.5217 22.86 59.7711 23.0067 59.8591 23.08L58.2751 25.731C58.1577 25.643 57.9561 25.5147 57.6701 25.346C57.3914 25.1773 57.0577 25.027 56.6691 24.895C56.2877 24.763 55.8881 24.697 55.4701 24.697C54.9054 24.697 54.4471 24.7997 54.0951 25.005C53.7504 25.203 53.5781 25.5 53.5781 25.896C53.5781 26.1673 53.6697 26.413 53.8531 26.633C54.0437 26.8457 54.3297 27.051 54.7111 27.249C55.0997 27.4397 55.5911 27.6487 56.1851 27.876C56.7277 28.074 57.2374 28.3087 57.7141 28.58C58.1907 28.8513 58.6087 29.174 58.9681 29.548C59.3347 29.9147 59.6244 30.34 59.8371 30.824C60.0497 31.308 60.1561 31.858 60.1561 32.474C60.1561 33.2073 60.0057 33.8453 59.7051 34.388C59.4044 34.9233 58.9937 35.367 58.4731 35.719C57.9597 36.071 57.3731 36.3313 56.7131 36.5C56.0604 36.676 55.3821 36.764 54.6781 36.764C53.6807 36.764 52.7861 36.6503 51.9941 36.423C51.2094 36.1957 50.5751 35.95 50.0911 35.686C49.6071 35.422 49.3174 35.246 49.2221 35.158L50.8611 32.397C50.9491 32.463 51.1177 32.5693 51.3671 32.716C51.6237 32.8627 51.9354 33.0167 52.3021 33.178C52.6687 33.332 53.0574 33.464 53.4681 33.574C53.8861 33.684 54.2967 33.739 54.7001 33.739C55.3747 33.739 55.8807 33.6107 56.2181 33.354C56.5554 33.09 56.7241 32.7453 56.7241 32.32C56.7241 32.0047 56.6177 31.7223 56.4051 31.473C56.1924 31.2237 55.8734 30.989 55.4481 30.769C55.0227 30.5417 54.4911 30.3033 53.8531 30.054C53.2151 29.7973 52.6174 29.4857 52.0601 29.119C51.5101 28.7523 51.0627 28.294 50.7181 27.744C50.3734 27.194 50.2011 26.512 50.2011 25.698C50.2011 24.884 50.4284 24.18 50.8831 23.586C51.3451 22.9847 51.9501 22.5227 52.6981 22.2C53.4534 21.8773 54.2601 21.716 55.1181 21.716ZM69.4746 41.076V35.037C69.4159 35.191 69.2583 35.4073 69.0016 35.686C68.7449 35.9573 68.3929 36.2067 67.9456 36.434C67.5056 36.654 66.9666 36.764 66.3286 36.764C65.4559 36.764 64.6933 36.5513 64.0406 36.126C63.3879 35.6933 62.8819 35.1177 62.5226 34.399C62.1633 33.673 61.9836 32.87 61.9836 31.99C61.9836 31.11 62.1523 30.3107 62.4896 29.592C62.8269 28.866 63.3109 28.2867 63.9416 27.854C64.5723 27.4213 65.3239 27.205 66.1966 27.205C66.7759 27.205 67.2893 27.2967 67.7366 27.48C68.1913 27.656 68.5616 27.8687 68.8476 28.118C69.1409 28.36 69.3389 28.5837 69.4416 28.789V27.469H72.7746V41.076H69.4746ZM67.3186 34.135C67.7293 34.135 68.0923 34.0433 68.4076 33.86C68.7229 33.6767 68.9723 33.4237 69.1556 33.101C69.3463 32.771 69.4416 32.4007 69.4416 31.99C69.4416 31.5793 69.3463 31.2127 69.1556 30.89C68.9723 30.56 68.7229 30.3033 68.4076 30.12C68.0923 29.9293 67.7293 29.834 67.3186 29.834C66.9373 29.834 66.5889 29.9293 66.2736 30.12C65.9656 30.3033 65.7199 30.56 65.5366 30.89C65.3533 31.2127 65.2616 31.5793 65.2616 31.99C65.2616 32.4007 65.3533 32.771 65.5366 33.101C65.7199 33.4237 65.9656 33.6767 66.2736 33.86C66.5889 34.0433 66.9373 34.135 67.3186 34.135ZM77.7775 31.649C77.7775 32.3677 77.9132 32.9433 78.1845 33.376C78.4559 33.8013 78.9105 34.014 79.5485 34.014C80.2012 34.014 80.6595 33.8013 80.9235 33.376C81.1949 32.9433 81.3305 32.3677 81.3305 31.649V27.469H84.6305V32.001C84.6305 32.969 84.4289 33.8123 84.0255 34.531C83.6295 35.2423 83.0539 35.7923 82.2985 36.181C81.5432 36.5697 80.6265 36.764 79.5485 36.764C78.4779 36.764 77.5649 36.5697 76.8095 36.181C76.0542 35.7923 75.4785 35.2423 75.0825 34.531C74.6865 33.8123 74.4885 32.969 74.4885 32.001V27.469H77.7775V31.649ZM93.6693 36.5V35.037C93.6033 35.1837 93.4346 35.3963 93.1633 35.675C92.8993 35.9537 92.5473 36.2067 92.1073 36.434C91.6673 36.654 91.1539 36.764 90.5673 36.764C89.6873 36.764 88.9173 36.5513 88.2573 36.126C87.5973 35.6933 87.0839 35.1177 86.7173 34.399C86.3506 33.673 86.1673 32.87 86.1673 31.99C86.1673 31.11 86.3506 30.3107 86.7173 29.592C87.0839 28.866 87.5973 28.2867 88.2573 27.854C88.9173 27.4213 89.6873 27.205 90.5673 27.205C91.1319 27.205 91.6269 27.2967 92.0523 27.48C92.4776 27.656 92.8223 27.8687 93.0863 28.118C93.3503 28.36 93.5336 28.5837 93.6363 28.789V27.469H96.9583V36.5H93.6693ZM89.4453 31.99C89.4453 32.4007 89.5406 32.771 89.7313 33.101C89.9219 33.4237 90.1749 33.6767 90.4903 33.86C90.8129 34.0433 91.1686 34.135 91.5573 34.135C91.9606 34.135 92.3163 34.0433 92.6243 33.86C92.9323 33.6767 93.1743 33.4237 93.3503 33.101C93.5336 32.771 93.6253 32.4007 93.6253 31.99C93.6253 31.5793 93.5336 31.2127 93.3503 30.89C93.1743 30.56 92.9323 30.3033 92.6243 30.12C92.3163 29.9293 91.9606 29.834 91.5573 29.834C91.1686 29.834 90.8129 29.9293 90.4903 30.12C90.1749 30.3033 89.9219 30.56 89.7313 30.89C89.5406 31.2127 89.4453 31.5793 89.4453 31.99ZM102.138 36.5H98.7943V27.469H102.138V28.866H102.083C102.142 28.6973 102.285 28.4847 102.512 28.228C102.74 27.964 103.059 27.7293 103.469 27.524C103.88 27.3113 104.382 27.205 104.976 27.205C105.394 27.205 105.779 27.271 106.131 27.403C106.483 27.5277 106.74 27.6487 106.901 27.766L105.603 30.483C105.501 30.3583 105.317 30.23 105.053 30.098C104.797 29.9587 104.474 29.889 104.085 29.889C103.638 29.889 103.268 30.0027 102.974 30.23C102.688 30.4573 102.476 30.7323 102.336 31.055C102.204 31.3777 102.138 31.682 102.138 31.968V36.5ZM110.229 32.694C110.251 33.0167 110.353 33.3027 110.537 33.552C110.72 33.8013 110.973 33.9993 111.296 34.146C111.626 34.2853 112.014 34.355 112.462 34.355C112.887 34.355 113.268 34.311 113.606 34.223C113.95 34.135 114.247 34.025 114.497 33.893C114.753 33.761 114.951 33.6253 115.091 33.486L116.389 35.554C116.205 35.752 115.945 35.9463 115.608 36.137C115.278 36.3203 114.841 36.4707 114.299 36.588C113.756 36.7053 113.07 36.764 112.242 36.764C111.244 36.764 110.357 36.577 109.58 36.203C108.802 35.829 108.19 35.279 107.743 34.553C107.295 33.827 107.072 32.9397 107.072 31.891C107.072 31.011 107.262 30.219 107.644 29.515C108.032 28.8037 108.593 28.2427 109.327 27.832C110.06 27.414 110.944 27.205 111.978 27.205C112.96 27.205 113.811 27.3847 114.53 27.744C115.256 28.1033 115.813 28.6387 116.202 29.35C116.598 30.054 116.796 30.934 116.796 31.99C116.796 32.0487 116.792 32.166 116.785 32.342C116.785 32.518 116.777 32.6353 116.763 32.694H110.229ZM113.65 30.945C113.642 30.7103 113.58 30.4793 113.463 30.252C113.345 30.0173 113.169 29.8267 112.935 29.68C112.7 29.526 112.399 29.449 112.033 29.449C111.666 29.449 111.354 29.5223 111.098 29.669C110.848 29.8083 110.658 29.9917 110.526 30.219C110.394 30.4463 110.32 30.6883 110.306 30.945H113.65Z" fill="#CCDEFF"/>
<path fill-rule="evenodd" clip-rule="evenodd" d="M2.48276 0.5H0V2.98276V18.5V26.2586H4.96551V18.5V5.46551H10.2414H18V0.5H10.2414H2.48276ZM31.0344 26.8793H26.3795V18.5H34.7588L35.9999 18.5V26.2586V34.0172V36.5H33.5172H25.7586H18H10.2414V31.5345H18H25.7586H31.0344V26.8793Z" fill="#CCDEFF"/>
<path fill-rule="evenodd" clip-rule="evenodd" d="M33.5182 0.500488L20.482 0.500491L20.482 5.46601L27.5243 5.46601L14.4902 18.5001H0V36.5001H18.0006V22.012L31.0355 8.97716L31.0355 16.0217H36.001V2.98325V0.500489L33.5182 0.500488Z" fill="#015AFF"/>
</svg>
